<svg xmlns="http://www.w3.org/2000/svg" id="a" viewBox="0 0 275 275" fill="white"><path d="M126.73,267.03h-3.6c-6.32-1.61-10.05-8.1-7.17-14.24,3.51-7.48,14.68-7.39,18.02.16,2.74,6.19-.94,12.43-7.25,14.07Z"></path><path d="M266.89,122.68v5.04c-3.56,12.12-21.7,8.18-19.52-4.28,1.83-10.47,16.64-10.81,19.52-.76Z"></path><path d="M167.65,146.66c-8.38-1.06-8.58-13.36,1.43-14.16,4.65-.37,13.15-.4,17.78,0,7.69.67,5.78,9.37,4.84,14.69-2.9,16.43-14.75,24.75-31.26,23.7-31.94-2.03-33.1-50.31-6.51-63.35,9.71-4.77,25.51-4.92,33.41,3.39,4.16,4.37,5.46,12.69-1.61,14.7-7.14,2.03-9.38-6-16.38-6.55-20.45-1.63-25.11,32.31-8.96,36.52,6.7,1.75,15.57-1.09,16.03-8.94-2.75-.25-6.08.34-8.76,0Z"></path><path d="M104.44,120.08l-2.43,9.08c12.76-5.43,25.82,1.19,26.88,15.47.88,11.92-4.21,22.07-16.22,25.27-8.49,2.26-23.56,1.24-28.61-7.1-3.7-6.11-.77-13.65,7.01-12.75,4.57.53,6.13,5.69,11.31,6.21,5.83.58,11.43-2.19,11.13-8.71-.26-5.65-4.68-7.28-9.7-6.88-5.37.43-9.1,6.07-14.8,3.3-3.38-1.65-3.19-5.2-2.8-8.41.69-5.72,2.23-12.46,3.4-18.19,1.06-5.23,1.37-11.18,8-11.91,7.92.51,16.9-.78,24.69-.02,9.16.88,9.27,13.83-1.43,14.63-5.3.4-11.07-.34-16.42.02Z"></path><path d="M159.32,245.76c11.54-1.32,15.44,15.11,4.74,19.12-14.09,5.28-19.19-17.46-4.74-19.12Z"></path><path d="M16.27,120.59c14.38-1.96,15.4,19.51,1.84,19.85-12.21.31-13.74-18.22-1.84-19.85Z"></path><path d="M23.96,85.82c12.41-1.57,15.72,16.32,4.08,19.42-13.76,3.67-17.54-17.71-4.08-19.42Z"></path><path d="M192.43,234c14.22-1.93,15.35,19.53,1.84,19.85-12.48.3-13.68-18.24-1.84-19.85Z"></path><path d="M67.16,30.2c13.64-1.59,14.93,19.41,1.6,19.84s-13.97-18.39-1.6-19.84Z"></path><path d="M254.35,150.8c4.27-.58,8.82,2.04,10.42,6.01,3.76,9.29-6.63,17.67-14.91,12.02-7.37-5.03-4.33-16.83,4.49-18.03Z"></path><path d="M168.91,12.69c12.63-1.62,15.74,16.31,4.09,19.43-13.64,3.66-17.37-17.73-4.09-19.43Z"></path><path d="M32.84,188.93c14.95-1.78,15.22,21.66-.49,19.53-10.46-1.42-10.72-18.2.49-19.53Z"></path><path d="M242.11,184.37c14.2-1.92,15.71,19.45,1.77,19.69-12.46.22-13.36-18.12-1.77-19.69Z"></path><path d="M220.99,212.9c13.05-1.79,15.84,17.1,3.72,19.54-13.7,2.76-16.37-17.8-3.72-19.54Z"></path><path d="M106.97,16.79c9.79,9.22-5,23.96-14.2,14.07-8.56-9.19,4.93-22.82,14.2-14.07Z"></path><path d="M88.75,238.31c13.04-2.03,16.05,16.89,3.96,19.54-13.34,2.92-16.76-17.55-3.96-19.54Z"></path><path d="M236.33,67.93c-9.45,8.68-22.85-5.32-13.95-14.3,9.47-9.56,23.78,5.28,13.95,14.3Z"></path><path d="M40.99,54.89c14.98-2.03,15.53,20.99.42,19.6-11.17-1.03-11.49-18.09-.42-19.6Z"></path><path d="M53.13,222.51c9.52-9.51,23.45,5.05,14.05,14.16s-23.13-5.09-14.05-14.16Z"></path><path d="M18.91,156.07c14.8-1.99,15.78,18.52,3.05,19.6-13.24,1.12-14.31-18.08-3.05-19.6Z"></path><path d="M246.67,81.02c12.16-1.56,15.68,15.24,5.16,19.07-14.22,5.18-19-17.3-5.16-19.07Z"></path><path d="M128.01,25.01c-9.45-9.64,6.1-24.06,14.92-13.11,7.76,9.64-6.24,21.96-14.92,13.11Z"></path><path d="M201.31,27.31c14-1.92,15.53,19.63,1.58,19.75-12.33.11-13.35-18.14-1.58-19.75Z"></path><path d="M126.67,225.61c9.32-1.21,10.84,13.03,1.83,14.06-9.34,1.07-11.01-12.86-1.83-14.06Z"></path><path d="M140.33,48.03c-6.84,5.93-16.11-4.2-9.49-10.56s16.74,4.27,9.49,10.56Z"></path><path d="M47.21,126.6c7.04,6.09-2.58,17.13-9.64,10.47-6.46-6.1,2.67-16.5,9.64-10.47Z"></path><path d="M74.59,203.78c6.39-1.08,11.13,5.62,7.37,10.96-4.25,6.04-14.08,2.27-12.72-5.51.43-2.48,2.85-5.02,5.35-5.45Z"></path><path d="M181.64,215.07c9.5-1,10.69,13.35,1.37,14.08s-10.37-13.13-1.37-14.08Z"></path><path d="M53.95,179.33c6.39-1.08,11.13,5.62,7.37,10.96-4.09,5.8-13.27,2.59-12.82-4.66.18-2.81,2.59-5.82,5.45-6.3Z"></path><path d="M224.59,93.49c8.17-1.06,11.1,10.65,3.51,13.58-9.86,3.8-13.77-12.24-3.51-13.58Z"></path><path d="M204.19,198.28c9.31-1.27,10.91,12.9,2.08,14.06-9.5,1.25-11.01-12.85-2.08-14.06Z"></path><path d="M231.55,120.83c9.9-1.41,10.92,13.8,1.36,14.09-8.86.27-9.91-12.88-1.36-14.09Z"></path><path d="M209.47,69.51c8.99-1.32,11.42,11.47,3.19,13.74-9.7,2.68-12.54-12.37-3.19-13.74Z"></path><path d="M47.47,97.33c8.47-1.11,11.23,11.11,3.17,13.72-9.79,3.17-12.92-12.45-3.17-13.72Z"></path><path d="M105.28,230.5c-6.81,6.81-16.96-4.03-9.73-10.32,6.82-5.94,15.99,4.06,9.73,10.32Z"></path><path d="M188.84,50.81c9.43-.86,10.36,13.47,1.13,14.08s-10.34-13.24-1.13-14.08Z"></path><path d="M162.43,39.3c5.94-.87,10.4,5.03,7.45,10.32-3.82,6.84-14.5,3.32-13.1-4.93.44-2.59,3.05-5.01,5.65-5.39Z"></path><path d="M160.72,226.35c6.52,6.16-2.8,16.64-9.73,10.32s2.81-16.85,9.73-10.32Z"></path><path d="M229.87,149.12c10.06-1.7,11.4,12.48,3.01,13.79-10.06,1.57-11.1-12.43-3.01-13.79Z"></path><path d="M220.51,175.73c10.67-1.8,11.62,14.63.65,13.86-7.83-.55-8.22-12.58-.65-13.86Z"></path><path d="M57.45,84.95c-7-6.4,2.98-16.87,9.73-10.32,6.49,6.29-2.98,16.49-9.73,10.32Z"></path><path d="M43.39,153.2c11.5-1.66,11.04,15.23.44,13.82-7.79-1.04-7.59-12.79-.44-13.82Z"></path><path d="M112.72,52.58c-3.54,3.37-10.02,1.96-11.55-2.79-2.03-6.27,4.39-11.61,10.17-8.48,4.04,2.19,4.67,8.15,1.38,11.28Z"></path><path d="M77.85,54.91c6.96-6.36,16.62,4.66,9.15,10.7-7.04,5.69-15.78-4.63-9.15-10.7Z"></path><path d="M205.87,103.8c6.56-1.06,7.66,8.92,1.35,9.51s-7.32-8.55-1.35-9.51Z"></path><path d="M93.31,72.15c7.06-1.32,7.96,9,1.59,9.52s-7.03-8.5-1.59-9.52Z"></path><path d="M77.22,87.49c6.76-1.39,8.23,8.49,2.05,9.48s-7.54-8.35-2.05-9.48Z"></path><path d="M194.6,84.85c5.09-.6,7.38,6.88,2.62,9.1-7.03,3.27-10.05-8.22-2.62-9.1Z"></path><path d="M150.91,206.66c6.83-1.18,7.9,8.75,1.6,9.51s-7.39-8.52-1.6-9.51Z"></path><path d="M172.28,199.23c6.47-.7,7.17,8.74,1.35,9.51-6.79.9-7.44-8.86-1.35-9.51Z"></path><path d="M202.99,168.3c6.7-1.12,7.79,8.73,1.6,9.51s-7.45-8.53-1.6-9.51Z"></path><path d="M187.3,194.29c-2.28-2.22-1.65-6.44,1.3-7.76,5.06-2.26,9.23,3.93,5.58,7.73-1.76,1.82-5.08,1.78-6.87.04Z"></path><path d="M212.11,125.14c4.35-.17,6.58,5.33,3.5,8.29-2.86,2.74-7.81.97-8.22-2.98-.28-2.66,2.08-5.2,4.73-5.31Z"></path><path d="M210.43,147.44c6.93-.95,7.53,8.85,1.35,9.51s-7.36-8.69-1.35-9.51Z"></path><path d="M113.71,62.08c6.17-.77,7.29,8.72,1.36,9.51-6.73.9-7.62-8.73-1.36-9.51Z"></path><path d="M62.11,128.5c7.47-1.14,7.42,10.6,0,9.47-5.12-.78-5.21-8.68,0-9.47Z"></path><path d="M63.78,150.55c7.67-1.58,7.67,11.08,0,9.48-4.96-1.03-4.74-8.5,0-9.48Z"></path><path d="M72.19,171.18c6.99-1.19,7.65,8.78,1.6,9.51-6.09.74-7.44-8.52-1.6-9.51Z"></path><path d="M177.79,70.23c6.23-.78,7.18,8.61,1.6,9.52-6.91,1.12-7.83-8.74-1.6-9.52Z"></path><path d="M157.64,61.11c6.22-.55,7.18,8.74,1.35,9.52-6.82.91-7.59-8.97-1.35-9.52Z"></path><path d="M128.59,207.62c3.95-.74,7.13,2.81,5.59,6.55-2.04,4.96-9.97,3.35-9.11-2.87.22-1.57,1.96-3.39,3.52-3.68Z"></path><path d="M66.43,106.91c8.91-1.51,7.05,12.34-.9,8.93-4.08-1.75-3.18-8.24.9-8.93Z"></path><path d="M134.83,58.48c3.52-.59,6.49,1.62,6.04,5.32-.5,4.06-5.92,5.49-8.5,2.3-2.07-2.56-.81-7.07,2.46-7.62Z"></path><path d="M88.27,190.36c7.75-1.46,7.6,10.77.29,9.42-5.34-.99-4.94-8.55-.29-9.42Z"></path><path d="M108.17,201.9c6.75-.13,6.44,10.7-.94,9.44-5.36-.91-4.77-9.34.94-9.44Z"></path></svg>