<svg xmlns="http://www.w3.org/2000/svg" id="Layer_1" viewBox="0 0 1080 1080" fill="white"><path d="M799.3,726.5c-49.9,23.2-104,29.2-156.7,16.3-77.1-18.8-125.8-87.1-126.5-165.8h-204.4c1.6,49.3,39.6,88.3,90,89,26.2,1.2,50.6-5.9,74-18.3,3.3,30,16.6,55.4,40.9,72.1-48.3,25.6-100.9,34.5-153.4,26.7-85.1-13.7-142.3-81.4-143.5-169.2l-58.2-.4v-79.3s68.8-.2,68.8-.2c19.4-70,69.2-126.2,137.2-152.5,74.2-27.2,168.1-16.9,224.9,44.3,73.4-69.5,199.4-80.1,279.1-16.2,22.4,18.2,39,40.9,46.8,69.6l-85.3,27.1c-13-30.8-39.1-50.6-71.8-54.8-42.1-5.3-82.5,8.4-111.7,40-33.4,36.1-48.6,86.8-40.3,135.2,7.4,43.2,41.4,73.1,84.7,75.7,49.2,3.5,94.5-20.5,121.4-63.4l76.8,35.8c-22.3,38.4-52.8,68-92.9,88.2ZM536.3,468.4c-13.8-31.5-40.2-49.8-72.8-53.7-60.4-7.2-113.3,26.1-138,82.6l200.7.2,10.1-29.1Z"></path></svg>