<svg xmlns="http://www.w3.org/2000/svg" id="a" viewBox="0 0 275 275" fill="white"><path d="M226.13,43.1c48.86,45.51,54.7,121.74,13.37,174.33-51.84,65.96-151.85,66.24-203.75.24C-9.85,159.67,2.06,75.84,61.5,32.66,112.02-4.03,180.67.76,226.13,43.1ZM220.1,205.14c48.27-58.84,20.69-147.77-51.57-169.74C87.8,10.84,11.55,86.12,34.9,167.1s130.65,104.54,185.2,38.04Z"></path><path d="M213.1,196.21c-44.4,57.18-133.9,45.92-163.15-20.02C19.34,107.2,77.34,31.94,151.71,42.8c71.93,10.5,106.2,95.68,61.38,153.41ZM196.16,84.91c-38.05-42.08-106.32-31.95-130.2,19.33-27.87,59.85,26.31,125.34,90.31,109.87,57.42-13.88,79.79-85.07,39.89-129.2Z"></path><path d="M151.03,161.3c7.45.88,8.03,12.19-.95,12.81-11.28-.78-23.89,1-35.01-.01-4.16-.38-6.82-3.63-6.13-7.81l10.42-59.35c1.13-3.24,3.83-5.43,7.3-5.74,10.68-.96,22.73.7,33.55,0,7.27.84,8.05,10.32,1.1,12.45l-28.99.11-2.9,17.14h23.3c.21,0,1.68.71,1.99.91,4.89,3.13,3.37,10.73-2.46,11.42h-24.99s-3.15,18.1-3.15,18.1h26.92Z"></path></svg>