<svg xmlns="http://www.w3.org/2000/svg" id="Layer_1" viewBox="0 0 100 100"><defs><style>      .st0 {        fill: #fff;      }    </style></defs><g><path class="st0" d="M32.7,50.1h8.4c1,0,1.7.9,1.6,1.9h0c-.1.8-.8,1.3-1.6,1.3h-7l-.8,4.4h5.6c1,0,1.7.9,1.6,1.9h0c-.1.8-.8,1.3-1.6,1.3h-6.2l-.8,4.6h6.7c1,0,1.8.9,1.6,1.9h0c-.1.8-.8,1.3-1.6,1.3h-9c-1,0-1.7-.9-1.6-1.9l2.6-15c.2-1,1.1-1.7,2.1-1.7Z"></path><path class="st0" d="M54.6,58.3l-1.6,9.2c-.1.7-.7,1.2-1.4,1.2h0c-.8,0-1.5-.7-1.4-1.5h0c-.5.6-1.1,1.1-1.7,1.4-.6.3-1.3.4-2,.4s-1.8-.2-2.5-.7c-.7-.5-1.3-1.1-1.7-1.9-.4-.8-.6-1.8-.6-2.9s0-1,.1-1.5c.2-1.3.6-2.3,1.3-3.2.6-.9,1.3-1.5,2.2-1.9.8-.4,1.7-.6,2.6-.6s1.6.2,2.3.6c.6.4,1.1.9,1.4,1.7,0-.2.2-.5.3-.9.2-.6.8-1.1,1.4-1.1h0c.9,0,1.6.8,1.4,1.7ZM48.8,65.3c.6-.5,1-1.3,1.2-2.4,0-.3,0-.6,0-1,0-.9-.2-1.6-.7-2.1-.5-.5-1.1-.7-1.8-.7s-1.4.3-2,.8c-.6.5-.9,1.3-1.1,2.3,0,.3,0,.6,0,1,0,.9.2,1.6.7,2.1.4.5,1,.8,1.8.8s1.4-.2,2-.7Z"></path><path class="st0" d="M62.9,68.2c-.9.6-1.9.8-3.2.8s-2.6-.3-3.5-1c-.5-.3-.8-.7-1.1-1.2-.4-.7-.1-1.7.7-2h0c.6-.3,1.4,0,1.7.5.1.2.3.4.5.5.5.4,1,.6,1.7.6s.8,0,1.1-.3c.3-.2.4-.4.4-.8s-.2-.6-.5-.8c-.3-.2-.9-.5-1.6-.8-.7-.3-1.3-.6-1.7-.8-.4-.2-.8-.6-1.1-1-.3-.4-.5-.9-.5-1.5s0-.5,0-.6c.2-1.1.7-2,1.7-2.6.9-.6,2-.9,3.2-.9s1.6.1,2.2.4c.7.3,1.2.7,1.6,1.2,0,0,0,0,0,0,.6.7.3,1.8-.6,2.1h0c-.6.3-1.3.2-1.7-.3,0-.1-.2-.2-.3-.3-.4-.3-.8-.5-1.4-.5s-.7,0-.9.2c-.3.2-.5.5-.5.8,0,.3.2.6.5.8.3.2.8.5,1.5.7.7.3,1.3.6,1.8.8.5.2.8.6,1.2,1,.3.4.5,1,.5,1.6s0,.4,0,.7c-.2,1.1-.7,1.9-1.6,2.5Z"></path><path class="st0" d="M73.8,59.3h-2.5l-.8,4.5c0,.3,0,.6,0,.8,0,.5.1.9.4,1.2.2.2.6.4,1.1.4s.3,0,.5,0c.6-.1,1.3.2,1.5.8h0c.3.8-.2,1.6-.9,1.8,0,0,0,0,0,0-.5.1-1,.2-1.6.2-1.2,0-2.2-.3-2.9-.8-.8-.6-1.2-1.5-1.2-2.8s0-.8.1-1.3l.8-4.8h-.5c-.9,0-1.5-.8-1.3-1.6h0c.1-.7.7-1.1,1.3-1.1h1l.4-2.4c.1-.8.8-1.3,1.6-1.3h0c1,0,1.7.9,1.6,1.9l-.3,1.8h2c.9,0,1.5.8,1.3,1.6h0c-.1.7-.7,1.1-1.3,1.1Z"></path><path class="st0" d="M82.4,65.8c.2-.1.4-.2.5-.4.5-.4,1.2-.4,1.7,0h0c.7.5.8,1.6,0,2.2-.3.3-.7.5-1.1.7-1,.5-2,.7-3.1.7s-1.9-.2-2.7-.6c-.8-.4-1.5-1-1.9-1.9-.5-.8-.7-1.8-.7-2.9s0-.9.1-1.4c.2-1.3.7-2.4,1.4-3.3.7-.9,1.5-1.5,2.5-2,1-.4,2-.6,3-.6s2.5.3,3.3,1c.8.7,1.2,1.5,1.2,2.6,0,2.4-2.1,3.7-6.3,3.7s-1.2,0-1.9,0c0,.9.2,1.5.7,2,.4.5,1,.7,1.8.7s1.1-.1,1.5-.4ZM80.1,59.5c-.6.4-1,1-1.3,1.7.8,0,1.4,0,1.7,0,1.9,0,2.8-.5,2.8-1.4s-.1-.6-.4-.8c-.2-.2-.6-.3-1-.3-.7,0-1.3.2-1.9.6Z"></path><path class="st0" d="M88.2,68.7h0c-1,0-1.7-.9-1.6-1.9l2.6-14.6c.1-.8.8-1.3,1.6-1.3h0c1,0,1.7.9,1.6,1.9l-2.6,14.6c-.1.8-.8,1.3-1.6,1.3Z"></path></g><g><path class="st0" d="M9.4,68.2c-.4-1,.1-2,1.1-2.4h0c1-.4,2,.1,2.4,1.1h0c.4,1-.1,2-1.1,2.4h0c-.2,0-.4.1-.7.1h0c-.7,0-1.4-.5-1.7-1.2Z"></path><path class="st0" d="M7.7,60.5c0-1,.7-1.9,1.7-2h0c1,0,1.9.7,2,1.7h0c0,1-.7,1.9-1.7,2h0s0,0-.1,0h0c-1,0-1.8-.7-1.8-1.7Z"></path><path class="st0" d="M9.6,54.7c-1-.2-1.6-1.2-1.4-2.2h0c.2-1,1.2-1.6,2.2-1.4h0c1,.2,1.6,1.2,1.4,2.2h0c-.2.9-.9,1.5-1.8,1.5h0c-.1,0-.3,0-.4,0Z"></path><path class="st0" d="M58.1,49.6c-.4-1,.1-2,1.1-2.4h0c1-.4,2,.1,2.4,1.1h0c.4,1-.1,2-1.1,2.4h0c-.2,0-.4.1-.7.1h0c-.7,0-1.4-.5-1.7-1.2Z"></path><path class="st0" d="M11.6,47.6c-.9-.5-1.2-1.6-.8-2.5h0c.5-.9,1.6-1.2,2.5-.8h0c.9.5,1.2,1.6.8,2.5h0c-.3.6-1,1-1.6,1h0c-.3,0-.6,0-.9-.2Z"></path><path class="st0" d="M54.7,43.6h0c-.6-.8-.5-2,.3-2.6h0c.8-.6,2-.5,2.6.4h0c.6.8.5,2-.4,2.6h0c-.3.3-.7.4-1.1.4h0c-.6,0-1.1-.3-1.5-.7Z"></path><path class="st0" d="M15.6,41.3c-.7-.7-.7-1.9,0-2.6h0c.7-.7,1.9-.7,2.6,0h0c.7.7.7,1.9,0,2.6h0c-.4.4-.8.6-1.3.6h0c-.5,0-.9-.2-1.3-.5Z"></path><path class="st0" d="M49.8,38.7h0c-.8-.6-1-1.8-.4-2.6h0c.6-.8,1.8-1,2.6-.4h0c.8.6,1,1.8.4,2.6h0c-.4.5-.9.8-1.5.8h0c-.4,0-.8-.1-1.1-.4Z"></path><path class="st0" d="M21.2,36.4c-.5-.9-.2-2,.7-2.5h0c.9-.5,2-.2,2.5.7h0c.5.9.2,2-.7,2.5h0c-.3.2-.6.2-.9.2h0c-.6,0-1.3-.3-1.6-.9Z"></path><path class="st0" d="M43.7,35.5h0c-1-.3-1.5-1.4-1.1-2.4h0c.3-1,1.4-1.5,2.4-1.1h0c1,.3,1.5,1.4,1.1,2.4h0c-.3.8-1,1.2-1.7,1.2h0c-.2,0-.4,0-.6-.1Z"></path><path class="st0" d="M27.9,33.2c-.2-1,.4-2,1.4-2.2h0c1-.2,2,.4,2.2,1.4h0c.2,1-.4,2-1.4,2.2h0c-.1,0-.3,0-.4,0h0c-.8,0-1.6-.6-1.8-1.4Z"></path><path class="st0" d="M37,34.1c-1,0-1.8-.9-1.7-2h0c0-1,.9-1.8,2-1.7h0c1,0,1.8.9,1.7,2h0c0,1-.9,1.7-1.8,1.7h0s0,0-.1,0Z"></path><path class="st0" d="M16.7,68.2h0c-.4-.7-.1-1.6.6-2h0c.7-.4,1.6-.1,2,.6h0c.4.7.1,1.6-.6,2h0c-.2.1-.5.2-.7.2h0c-.5,0-1-.3-1.3-.8Z"></path><path class="st0" d="M14.7,62.5h0c-.2-.8.4-1.6,1.2-1.7h0c.8-.2,1.6.4,1.7,1.2h0c.2.8-.4,1.6-1.2,1.7h0c0,0-.2,0-.3,0h0c-.7,0-1.3-.5-1.4-1.2Z"></path><path class="st0" d="M15.7,58c-.8,0-1.4-.8-1.3-1.6h0c0-.8.8-1.4,1.6-1.3h0c.8,0,1.4.8,1.3,1.6h0c0,.8-.7,1.4-1.5,1.4h0s0,0-.1,0Z"></path><path class="st0" d="M16.5,52.5c-.8-.3-1.1-1.2-.8-1.9h0c.3-.8,1.2-1.1,1.9-.8h0c.8.3,1.1,1.2.8,1.9h0c-.2.6-.8.9-1.4.9h0c-.2,0-.4,0-.5-.1Z"></path><path class="st0" d="M51.6,49.7c-.4-.7-.1-1.6.6-2h0c.7-.4,1.6-.1,2,.6h0c.4.7.1,1.6-.6,2h0c-.2.1-.5.2-.7.2h0c-.5,0-1-.3-1.3-.8Z"></path><path class="st0" d="M18.9,47.4c-.6-.5-.8-1.4-.3-2.1h0c.5-.6,1.4-.8,2.1-.3h0c.6.5.8,1.4.3,2.1h0c-.3.4-.7.6-1.2.6h0c-.3,0-.6-.1-.9-.3Z"></path><path class="st0" d="M48.5,45.5h0c-.6-.6-.6-1.5,0-2.1h0c.6-.6,1.5-.6,2.1,0h0c.6.6.6,1.5,0,2.1h0c-.3.3-.7.4-1,.4h0c-.4,0-.8-.1-1.1-.4Z"></path><path class="st0" d="M22.6,43.1c-.5-.7-.3-1.6.3-2.1h0c.7-.5,1.6-.3,2.1.3h0c.5.7.3,1.6-.3,2.1h0c-.3.2-.6.3-.9.3h0c-.5,0-.9-.2-1.2-.6Z"></path><path class="st0" d="M44.4,42.3c-.7-.4-1-1.3-.6-2h0c.4-.7,1.3-1,2-.6h0c.7.4,1,1.3.6,2h0c-.3.5-.8.8-1.3.8h0c-.2,0-.5,0-.7-.2Z"></path><path class="st0" d="M27.4,40.1c-.3-.8.1-1.6.9-1.9h0c.8-.3,1.6.1,1.9.9h0c.3.8-.1,1.6-.9,1.9h0c-.2,0-.3,0-.5,0h0c-.6,0-1.2-.4-1.4-1Z"></path><path class="st0" d="M39.6,40.4c-.8-.2-1.3-1-1.1-1.8h0c.2-.8,1-1.3,1.8-1.1h0c.8.2,1.3,1,1.1,1.8h0c-.2.7-.8,1.1-1.4,1.1h0c-.1,0-.2,0-.3,0Z"></path><path class="st0" d="M32.8,38.6c0-.8.6-1.5,1.4-1.6h0c.8,0,1.5.6,1.6,1.4h0c0,.8-.6,1.5-1.4,1.6h0s0,0,0,0h0c-.8,0-1.4-.6-1.5-1.4Z"></path><g><path class="st0" d="M23.5,67.6h0c-.4-.5-.3-1.2.2-1.6h0c.5-.4,1.2-.3,1.6.2h0c.4.5.3,1.2-.2,1.6h0c-.2.2-.5.2-.7.2h0c-.3,0-.6-.2-.8-.4Z"></path><path class="st0" d="M21.1,63c-.2-.6.1-1.2.7-1.4h0c.6-.2,1.2.1,1.4.7h0c.2.6-.1,1.2-.7,1.4h0c-.1,0-.3,0-.4,0h0c-.5,0-.9-.3-1-.8Z"></path><path class="st0" d="M20.3,57.9c0-.6.5-1.1,1.1-1.1h0c.6,0,1.1.5,1.1,1.1h0c0,.6-.5,1.1-1.1,1.1h0c-.6,0-1.1-.5-1.1-1.1Z"></path><path class="st0" d="M22,54.2c-.6-.2-.8-.9-.6-1.4h0c.2-.6.9-.8,1.4-.6h0c.6.2.8.9.6,1.4h0c-.2.4-.6.7-1.1.7h0c-.1,0-.3,0-.4,0Z"></path><path class="st0" d="M24.2,49.9c-.5-.4-.5-1.1,0-1.6h0c.4-.5,1.1-.5,1.6,0h0c.5.4.5,1.1,0,1.6h0c-.2.3-.5.4-.9.4h0c-.3,0-.5-.1-.7-.3Z"></path><path class="st0" d="M45.2,50.4h0c-.4-.5-.3-1.2.2-1.6h0c.5-.4,1.2-.3,1.6.2h0c.4.5.3,1.2-.2,1.6h0c-.2.2-.5.2-.7.2h0c-.3,0-.6-.2-.8-.4Z"></path><path class="st0" d="M27.7,46.6c-.3-.5,0-1.2.4-1.5h0c.5-.3,1.2,0,1.5.4h0c.3.5,0,1.2-.4,1.5h0c-.2,0-.4.1-.6.1h0c-.4,0-.7-.2-.9-.6Z"></path><path class="st0" d="M41.9,47.4c-.5-.3-.7-1-.4-1.5h0c.3-.5,1-.7,1.5-.4h0c.5.3.7,1,.4,1.5h0c-.2.3-.6.5-1,.5h0c-.2,0-.4,0-.5-.2Z"></path><path class="st0" d="M32.1,44.8c0-.6.3-1.2.9-1.3h0c.6,0,1.2.3,1.3.9h0c0,.6-.3,1.2-.9,1.3h0c0,0-.1,0-.2,0h0c-.5,0-1-.4-1.1-.9Z"></path><path class="st0" d="M37.8,45.8c-.6-.1-1-.7-.9-1.3h0c.1-.6.7-1,1.3-.9h0c.6.1,1,.7.9,1.3h0c-.1.5-.6.9-1.1.9h0c0,0-.1,0-.2,0Z"></path></g></g></svg>