<svg xmlns="http://www.w3.org/2000/svg" id="Layer_1" viewBox="0 0 409.6 409.6" fill="white"><path d="M379.96,48.11v6.84c-1.38,5.77-4.38,10.22-8.82,14.46l-20.06,19.14,19.85,65.67c.72,2.38-.28,5.29-1.84,6.84l-13.76,13.75c-1.38,1.38-3.74,2.15-5.78,1.99-1.7-.13-3.94-1.57-5.11-3.51l-29.97-49.61-10.39,9.75c45.37,59.53,42.08,142.97-9.56,198.03-25.85,27.55-60.75,44.82-98.52,47.82-1.56.12-2.82.21-3.5.65h-19.16c-37.08-2.88-71.76-17.86-98.5-44.54-57.93-57.78-60.46-150.31-5.91-210.93,53.7-59.68,143.41-67.59,207.15-18.97l9.86-10.37-49.63-29.98c-1.93-1.16-3.38-3.41-3.5-5.11-.15-2.02.62-4.4,1.99-5.77l13.75-13.76c1.55-1.55,4.46-2.56,6.85-1.84l65.61,19.96,21.64-22.55c6.1-6.35,15.02-8.01,23.34-4.87,7.11,2.68,11.87,9.12,13.99,16.91ZM271.24,142.67l8.34,17.1c1.24-.3,2.91-2.19,2.83-3.38l-1.15-16.03c-.14-1.93.73-4.73,2.2-6.13l27.64-26.35c1.47-1.4,4.11-2.11,6.16-1.81,1.51.22,3.59,1.66,4.69,3.46l29.77,49.3,4.87-4.79-19.99-66.08c-.65-2.14.64-5.1,2.11-6.51l24.79-23.79c3.59-3.44,3.45-8.8.06-11.99s-8.34-3.04-11.64.42l-23.71,24.85c-1.79,1.88-4.68,2.77-7.29,1.98l-65.36-19.9-4.79,4.85,49.67,30.03c4.11,2.48,3.97,7.76.93,10.95l-26.01,27.27c-1.4,1.47-4.19,2.34-6.13,2.2l-16.03-1.15c-1.19-.09-3.09,1.59-3.38,2.83l17.32,8.44c1.52.74,3.24,2.48,4.09,4.22ZM122.27,147.95c16.7,8.09,34.3,12.67,53.65,13.78v-73.58c-8.8,1.51-15.38,5.52-21.8,10.47-15.19,12.76-24.81,30.83-31.85,49.33ZM234.86,137.95c-2.02-1.03-3.77-3.48-3.86-5.39-.1-2.14.84-4.17,2.37-6.13-5.33-10.09-12.32-19.34-21.07-26.95-6.71-5.43-13.9-9.81-22.65-11.28v73.52c18.86-1.01,36.69-5.47,53.56-13.64l-2.61-7.22-5.74-2.92ZM109.97,141.34c3.5-8.25,6.98-15.82,11.15-23.64,4.72-7.99,10.03-14.96,16.2-22.53-18.78,6.23-34.94,16.34-49.31,29.51,6.9,6.38,13.93,11.64,21.96,16.65ZM250.58,113.32l13.81.76c-11.21-8.5-23.1-14.5-36.26-18.87,5.94,7.06,10.83,13.62,15.46,20.88,2.16-1.83,4.57-2.95,6.99-2.77ZM95.63,219.78c.56-22.84,3.75-43.79,9.96-65.05-9.8-5.82-18.63-12.43-27.18-20.17-21.17,24.11-33.34,53.98-34.75,85.36l51.97-.14ZM271.49,174.42l-9.65-19.71c-.17-.35-1.6-.45-1.59-.16l.07,1.65c6.26,20.87,8.93,42.16,9.73,63.79l51.95-.02c-1.54-27.29-10.38-53.09-26.44-74.77l.71,13.84c.11,2.07-.74,4.8-2.22,6.27l-11.41,11.38c-1.37,1.37-4.2,2.13-6.11,1.83-1.76-.28-3.82-1.57-5.05-4.1ZM175.95,219.95v-44.6c-20.29-.93-39.44-5.73-57.98-14.15-5.45,19.27-8.25,38.9-8.64,58.79l66.62-.03ZM256.3,219.95c-.71-20.74-3.32-39.65-8.81-58.72-18.62,8.63-37.64,13.22-57.85,14.18v44.57s66.66-.04,66.66-.04ZM105.6,298.9c-6.39-21.64-9.38-43.01-10.03-65.24l-51.95.03c1.54,31.88,13.93,61.82,34.87,85.4,8.54-7.89,17.2-14.24,27.11-20.19ZM175.97,278.21l-.04-44.54h-66.65c.55,20.03,3.14,39.35,8.7,58.77,18.49-8.47,37.68-13.12,57.99-14.23ZM247.58,292.44c5.59-19.52,8.14-38.85,8.68-58.77h-66.61s0,44.61,0,44.61c20.25.98,39.17,5.64,57.93,14.16ZM287.17,319.09c20.96-24.03,33.15-53.21,34.77-85.36l-51.99-.07c-.56,22.4-3.75,43.91-9.98,65.3,10.07,5.9,18.66,12.46,27.19,20.13ZM154.49,355.34c6.63,5.04,13.38,8.87,21.46,10.13v-73.52c-18.9,1-36.83,5.55-53.67,13.76,7.19,18.91,16.77,36.74,32.21,49.63ZM227.73,336.77c6.47-9.92,11.36-19.9,15.54-31.07-16.73-8.14-34.6-12.72-53.62-13.77v73.55c16.18-2.75,28.94-15.53,38.08-28.71ZM137.58,358.53c-12.18-13.63-20.9-28.94-27.42-46.27-7.99,4.85-15.19,10.27-22.16,16.69,14.27,13.02,30.45,23.33,49.58,29.57ZM277.59,329c-7.07-6.53-14.18-11.83-22.17-16.75-6.41,17.03-14.89,31.95-27.11,46.07,18.94-5.95,34.73-16.29,49.28-29.32Z"></path></svg>